<mxfile host="app.diagrams.net" modified="2023-05-13T13:06:33.170Z" agent="Mozilla/5.0 (X11; Linux x86_64) AppleWebKit/537.36 (KHTML, like Gecko) Chrome/113.0.0.0 Safari/537.36" etag="pIPzg4yKGHCm5-B4bmY3" version="21.3.0" type="github">
  <diagram name="第 1 页" id="iqopnpeB1XNgQNJ7HMjx">
    <mxGraphModel dx="574" dy="298" grid="1" gridSize="10" guides="1" tooltips="1" connect="1" arrows="1" fold="1" page="1" pageScale="1" pageWidth="583" pageHeight="827" math="0" shadow="0">
      <root>
        <mxCell id="0" />
        <mxCell id="1" parent="0" />
        <mxCell id="-kkg5T2GZbdic67Ehfvw-3" style="edgeStyle=orthogonalEdgeStyle;rounded=0;orthogonalLoop=1;jettySize=auto;html=1;exitX=0.5;exitY=1;exitDx=0;exitDy=0;entryX=0.5;entryY=0;entryDx=0;entryDy=0;" edge="1" parent="1" source="-kkg5T2GZbdic67Ehfvw-1">
          <mxGeometry relative="1" as="geometry">
            <mxPoint x="292" y="70" as="targetPoint" />
          </mxGeometry>
        </mxCell>
        <mxCell id="-kkg5T2GZbdic67Ehfvw-1" value="开始" style="rounded=1;whiteSpace=wrap;html=1;fontFamily=宋体;fontSize=13;" vertex="1" parent="1">
          <mxGeometry x="253" y="20" width="78" height="30" as="geometry" />
        </mxCell>
        <mxCell id="-kkg5T2GZbdic67Ehfvw-7" style="edgeStyle=orthogonalEdgeStyle;rounded=0;orthogonalLoop=1;jettySize=auto;html=1;exitX=0.5;exitY=1;exitDx=0;exitDy=0;entryX=0.5;entryY=0;entryDx=0;entryDy=0;" edge="1" parent="1" source="-kkg5T2GZbdic67Ehfvw-4" target="-kkg5T2GZbdic67Ehfvw-5">
          <mxGeometry relative="1" as="geometry" />
        </mxCell>
        <mxCell id="-kkg5T2GZbdic67Ehfvw-4" value="异步等待消息" style="rounded=0;whiteSpace=wrap;html=1;fontFamily=宋体;fontSize=13;" vertex="1" parent="1">
          <mxGeometry x="243" y="70" width="98" height="40" as="geometry" />
        </mxCell>
        <mxCell id="-kkg5T2GZbdic67Ehfvw-8" style="edgeStyle=orthogonalEdgeStyle;rounded=0;orthogonalLoop=1;jettySize=auto;html=1;exitX=0.5;exitY=1;exitDx=0;exitDy=0;entryX=0.5;entryY=0;entryDx=0;entryDy=0;" edge="1" parent="1" source="-kkg5T2GZbdic67Ehfvw-5" target="-kkg5T2GZbdic67Ehfvw-6">
          <mxGeometry relative="1" as="geometry" />
        </mxCell>
        <mxCell id="-kkg5T2GZbdic67Ehfvw-5" value="分析消息&lt;br&gt;调用函数" style="rounded=0;whiteSpace=wrap;html=1;fontFamily=宋体;fontSize=13;" vertex="1" parent="1">
          <mxGeometry x="243" y="130" width="98" height="40" as="geometry" />
        </mxCell>
        <mxCell id="-kkg5T2GZbdic67Ehfvw-10" style="edgeStyle=orthogonalEdgeStyle;rounded=0;orthogonalLoop=1;jettySize=auto;html=1;exitX=0.5;exitY=1;exitDx=0;exitDy=0;entryX=0.5;entryY=0;entryDx=0;entryDy=0;" edge="1" parent="1" source="-kkg5T2GZbdic67Ehfvw-6" target="-kkg5T2GZbdic67Ehfvw-9">
          <mxGeometry relative="1" as="geometry" />
        </mxCell>
        <mxCell id="-kkg5T2GZbdic67Ehfvw-6" value="图像预处理" style="rounded=0;whiteSpace=wrap;html=1;fontFamily=宋体;fontSize=13;" vertex="1" parent="1">
          <mxGeometry x="243" y="190" width="98" height="40" as="geometry" />
        </mxCell>
        <mxCell id="-kkg5T2GZbdic67Ehfvw-9" value="加载模型&lt;br&gt;处理图像" style="rounded=0;whiteSpace=wrap;html=1;fontFamily=宋体;fontSize=13;" vertex="1" parent="1">
          <mxGeometry x="243" y="250" width="98" height="40" as="geometry" />
        </mxCell>
      </root>
    </mxGraphModel>
  </diagram>
</mxfile>
